HIERARCHY
ROOT root
{
	OFFSET	0	13.1	24.9
	CHANNELS 6  Xposition Yposition Zposition Xrotation Yrotation Zrotation
	JOINT spine_1
	{
		OFFSET	0	9.99999	0
		CHANNELS 3  Xrotation Yrotation Zrotation
		JOINT spine_2
		{
			OFFSET	0	112	-10
			CHANNELS 3  Xrotation Yrotation Zrotation
			JOINT spine_3
			{
				OFFSET	0	206.5	19.3
				CHANNELS 3  Xrotation Yrotation Zrotation
				JOINT spine_4
				{
					OFFSET	0	110.4	14.6
					CHANNELS 3  Xrotation Yrotation Zrotation
					JOINT neck_1
					{
						OFFSET	0	71.8	-50.3
						CHANNELS 3  Xrotation Yrotation Zrotation
						JOINT neck_2
						{
							OFFSET	0	86.2	-25.8
							CHANNELS 3  Xrotation Yrotation Zrotation
							JOINT head_ee
							{
								OFFSET	0	179.8	-8.7
								CHANNELS 3  Xrotation Yrotation Zrotation
								End Site
								{
									OFFSET	1	0	0
								}
							}
						}
					}
					JOINT left_clavicle
					{
						OFFSET	-43.2	22.4	-70.8
						CHANNELS 3  Xrotation Yrotation Zrotation
						JOINT left_shoulder
						{
							OFFSET	-93.9	-5.79999	48.7
							CHANNELS 3  Xrotation Yrotation Zrotation
							JOINT left_elbow
							{
								OFFSET	-291.4	-30.8	15.2
								CHANNELS 3  Xrotation Yrotation Zrotation
								JOINT left_lowarm_twist
								{
									OFFSET	-110.7	-3.89999	13.6
									CHANNELS 3  Xrotation Yrotation Zrotation
									JOINT left_hand
									{
										OFFSET	-110.7	-3.89999	13.6
										CHANNELS 3  Xrotation Yrotation Zrotation
										JOINT left_ee
										{
											OFFSET	-80.8	-5.10001	12.1
											CHANNELS 3  Xrotation Yrotation Zrotation
											End Site
											{
												OFFSET	1	0	0
											}
										}
									}
								}
							}
						}
					}
					JOINT right_clavicle
					{
						OFFSET	43.2	22.4	-70.8
						CHANNELS 3  Xrotation Yrotation Zrotation
						JOINT right_shoulder
						{
							OFFSET	93.9	-5.79999	48.7
							CHANNELS 3  Xrotation Yrotation Zrotation
							JOINT right_elbow
							{
								OFFSET	291.4	-30.8	15.2
								CHANNELS 3  Xrotation Yrotation Zrotation
								JOINT right_lowarm_twist
								{
									OFFSET	110.7	-3.89999	13.6
									CHANNELS 3  Xrotation Yrotation Zrotation
									JOINT right_hand
									{
										OFFSET	110.7	-3.89999	13.6
										CHANNELS 3  Xrotation Yrotation Zrotation
										JOINT right_ee
										{
											OFFSET	80.8	-5.10001	12.1
											CHANNELS 3  Xrotation Yrotation Zrotation
											End Site
											{
												OFFSET	1	0	0
											}
										}
									}
								}
							}
						}
					}
				}
			}
		}
	}
	JOINT left_hip
	{
		OFFSET	-82.8	-127.5	0.300001
		CHANNELS 3  Xrotation Yrotation Zrotation
		JOINT left_knee
		{
			OFFSET	-28.2	-396.7	2.2
			CHANNELS 3  Xrotation Yrotation Zrotation
			JOINT left_ankle
			{
				OFFSET	-11.7	-411.3	35.4
				CHANNELS 3  Xrotation Yrotation Zrotation
				JOINT left_toes
				{
					OFFSET	0	-60	-88.6
					CHANNELS 3  Xrotation Yrotation Zrotation
					JOINT left_foot_ee
					{
						OFFSET	-22.5	-16.5	-42.2
						CHANNELS 3  Xrotation Yrotation Zrotation
						End Site
						{
							OFFSET	1	0	0
						}
					}
				}
			}
		}
	}
	JOINT right_hip
	{
		OFFSET	82.8	-127.5	0.300001
		CHANNELS 3  Xrotation Yrotation Zrotation
		JOINT right_knee
		{
			OFFSET	28.2	-396.7	2.2
			CHANNELS 3  Xrotation Yrotation Zrotation
			JOINT right_ankle
			{
				OFFSET	11.7	-411.3	35.4
				CHANNELS 3  Xrotation Yrotation Zrotation
				JOINT right_toes
				{
					OFFSET	0	-60	-88.6
					CHANNELS 3  Xrotation Yrotation Zrotation
					JOINT right_foot_ee
					{
						OFFSET	22.5	-16.5	-42.2
						CHANNELS 3  Xrotation Yrotation Zrotation
						End Site
						{
							OFFSET	1	0	0
						}
					}
				}
			}
		}
	}
}
MOTION
Frames: 11
Frame Time: 0.02
2616.29 726.406 -923.593 4.7476 60.9963 6.40537 -4.13244 -0.347951 -2.43389 -4.12916 -0.192418 -2.45108 -4.11564 0.501319 -2.407 -4.12371 0.115007 -2.45593 8.17649 13.1619 7.96709 8.48156 14.7535 9.70805 -0.0 0.0 -0.0 -0.483868 13.4776 0.795898 -2.90137 -3.15653 81.0871 0.222192 -6.28126 0.0121916 14.3909 0.280792 -1.81205 2.26228 -6.43443 12.6372 -0.0 0.0 -0.0 12.5823 20.9269 -25.2066 19.5742 19.5316 -47.4306 1.7059 40.1962 -0.624249 61.083 1.87129 7.20693 2.41488 0.119944 -16.3118 0.0 0.0 0.0 15.9237 -51.2074 -14.9286 -16.6458 0.320493 2.5254 -5.32038 29.3452 0.841986 -3.3267 0.0 0.0 -0.0 0.0 -0.0 -10.2621 -0.365485 -13.5379 -19.2362 -0.303945 -2.92245 24.725 -0.739124 3.31652 19.6982 -0.0 -0.0 0.0 0.0 0.0 
2596.17 723.781 -929.268 6.8672 60.7727 5.12715 -4.33087 -0.417769 -2.60501 -4.32714 -0.251217 -2.6263 -4.30924 0.502665 -2.58998 -4.31859 0.0874661 -2.63683 8.92934 12.4191 8.04482 9.18878 13.2381 9.81745 -0.0 0.0 -0.0 -0.161361 13.7828 1.36135 -2.07457 -3.664 81.1058 0.243124 -6.8676 0.0145883 14.4094 0.280858 -1.81441 2.19582 -5.9624 12.3793 -0.0 0.0 -0.0 12.64 21.0461 -25.3308 18.2154 18.6482 -47.6465 1.65808 39.3953 -0.593637 61.9574 1.95125 7.2855 2.48877 0.0789455 -16.8442 0.0 0.0 0.0 16.9534 -51.5582 -13.2432 -20.9961 0.282468 3.19164 -8.11817 29.583 1.2923 -1.22114 0.0 0.0 -0.0 0.0 -0.0 -10.8095 1.91996 -14.0714 -21.3483 -0.277179 -3.24541 26.2679 -2.09786 3.48663 20.7719 -0.0 -0.0 0.0 0.0 0.0 
2572.13 724.876 -931.026 8.26205 60.5821 4.23421 -4.54095 -0.521529 -2.70264 -4.53695 -0.348561 -2.73032 -4.513 0.448352 -2.71573 -4.52329 0.0139954 -2.75243 9.2547 11.8321 8.62127 9.48417 11.6425 10.528 -0.0 0.0 -0.0 0.33413 13.922 2.18484 -0.361083 -4.00227 80.9281 0.270396 -7.62933 0.0180293 14.6538 0.281659 -1.84562 2.1533 -5.66295 12.2129 -0.0 0.0 -0.0 12.6452 20.8249 -25.3602 16.5895 17.7739 -47.4501 1.57653 37.9859 -0.542655 62.8571 2.03479 7.36509 2.53671 -0.264035 -17.3163 0.0 0.0 0.0 18.0664 -51.5032 -11.1036 -24.443 0.216504 3.71637 -11.6496 29.5446 1.86222 0.287985 -0.0 -0.0 -0.0 0.0 -0.0 -11.0319 4.1038 -13.9267 -22.8569 -0.250779 -3.4754 25.7773 -3.43816 3.42539 21.369 -0.0 -0.0 0.0 0.0 0.0 
2546.95 730.796 -934.333 9.04797 59.9089 4.08677 -4.63105 -0.582286 -2.7455 -4.62695 -0.406472 -2.77696 -4.59941 0.410371 -2.77639 -4.61017 -0.0330781 -2.80633 9.59666 11.8022 9.30611 9.82473 10.8652 11.3805 -0.0 0.0 -0.0 1.17981 13.41 3.518 2.11512 -3.93242 79.8599 0.277951 -7.83987 0.0190461 15.1062 0.282792 -1.90339 2.11077 -5.28996 12.0773 -0.0 0.0 -0.0 12.4837 20.6642 -24.9991 14.2701 16.877 -47.4681 1.45865 35.8487 -0.471839 63.0752 2.05523 7.38418 2.58483 -0.398316 -17.7071 0.0 0.0 0.0 17.998 -51.0579 -10.3797 -26.3998 0.16504 4.01225 -14.1666 29.599 2.27109 1.28443 -0.0 -0.0 -0.0 0.0 -0.0 -10.977 5.61294 -13.8834 -23.8624 -0.229825 -3.62827 27.0454 -4.3395 3.56653 22.0141 -0.0 -0.0 0.0 0.0 0.0 
2521.83 740.843 -938.431 10.2863 60.1795 3.45172 -4.95742 -0.689672 -3.00639 -4.95253 -0.497061 -3.04413 -4.91611 0.417429 -3.05606 -4.92913 -0.0702194 -3.08361 9.78905 11.7208 9.80761 10.0181 10.2105 12.0066 -0.0 0.0 -0.0 1.78678 13.1392 4.49577 3.78408 -3.91344 79.0072 0.288745 -8.14031 0.0205463 15.5023 0.283409 -1.95397 2.07858 -5.16397 11.9086 -0.0 0.0 -0.0 12.1743 20.685 -24.2843 11.4214 16.3734 -47.6699 1.34761 33.724 -0.408476 63.1444 2.06172 7.39022 2.6097 -0.86921 -18.0677 0.0 0.0 0.0 18.4264 -50.8088 -8.65493 -29.3798 0.0673216 4.4591 -16.2205 29.6627 2.60576 2.19688 -0.0 -0.0 -0.0 0.0 -0.0 -10.239 7.19598 -14.5429 -24.5507 -0.213933 -3.73271 27.2141 -5.19198 3.58387 22.0621 -0.0 -0.0 0.0 0.0 0.0 
2495.49 745.333 -942.823 12.4352 60.022 1.07301 -5.46614 -0.783016 -3.17699 -5.46071 -0.579377 -3.22032 -5.41599 0.418687 -3.2451 -5.43067 -0.0987863 -3.27048 11.5168 14.053 11.2218 11.8001 12.1878 13.89 -0.0 0.0 -0.0 2.3398 11.4819 5.31025 4.47435 -3.05796 78.8251 0.297413 -8.38126 0.0217918 16.4651 0.283451 -2.07695 2.29056 -6.61061 12.7573 -0.0 0.0 -0.0 11.2577 20.9146 -22.1712 9.50434 15.3975 -49.249 1.30722 32.9239 -0.386288 63.3602 2.08204 7.40902 2.39444 -1.25276 -16.7122 0.0 0.0 0.0 20.0445 -51.9408 -4.45677 -33.7767 -0.119022 5.10793 -16.483 29.9035 2.65272 5.46926 -0.0 -0.0 -0.0 0.0 -0.0 -7.43821 11.3414 -15.1782 -28.9531 -0.0827388 -4.39543 26.3968 -7.66086 3.49159 23.9053 -0.0 -0.0 0.0 0.0 0.0 
2464.07 745.582 -944.653 13.4505 59.4482 0.0598949 -5.7359 -0.821984 -3.18084 -5.73048 -0.618021 -3.22663 -5.68293 0.398901 -3.26094 -5.69775 -0.120824 -3.28301 12.4511 14.6843 11.8647 12.7369 12.2925 14.7954 -0.0 0.0 -0.0 3.17259 9.81222 6.65024 7.77441 -2.58086 77.5825 0.340189 -9.56579 0.0284642 17.4262 0.281431 -2.19969 2.43767 -7.95209 13.1959 -0.0 0.0 -0.0 10.4755 21.052 -20.3914 8.19298 14.789 -50.0445 1.13914 29.4348 -0.299226 63.7058 2.11472 7.43895 2.24123 -1.74807 -15.8417 0.0 0.0 0.0 20.8962 -51.4966 -1.33588 -37.3301 -0.305706 5.62087 -16.7246 29.7304 2.68892 7.53365 -0.0 -0.0 -0.0 0.0 -0.0 -5.7554 15.0701 -15.704 -31.9667 0.0362739 -4.84254 25.8405 -9.07863 3.43078 25.2621 -0.0 -0.0 0.0 0.0 0.0 
2436.81 746.794 -949.973 16.2482 59.8852 -3.00587 -6.03148 -0.819937 -3.06049 -6.02648 -0.623626 -3.1064 -5.98033 0.373079 -3.1463 -5.99412 -0.128244 -3.16572 13.3761 14.5243 11.3738 13.6301 12.2224 14.2808 -0.0 0.0 -0.0 3.65565 8.98601 7.46152 9.61264 -2.17722 76.6204 0.37042 -10.398 0.0337047 18.0197 0.279157 -2.27546 2.51623 -8.60404 13.4551 -0.0 0.0 -0.0 10.0565 20.776 -19.4715 5.864 13.8819 -51.3313 1.00958 26.5698 -0.238378 63.6712 2.11145 7.43597 2.08463 -2.15995 -14.9209 0.0 0.0 0.0 20.9425 -49.9919 1.10299 -39.382 -0.42792 5.91159 -16.9054 29.6546 2.71694 9.14378 -0.0 -0.0 -0.0 0.0 -0.0 -3.61845 17.3432 -17.2401 -36.1683 0.241163 -5.45442 25.5513 -11.9863 3.40932 26.0923 -0.0 -0.0 0.0 0.0 0.0 
2415.56 744.821 -952.58 16.2551 58.8955 -3.41651 -6.14373 -0.673845 -2.91818 -6.13912 -0.486871 -2.9551 -6.10302 0.462494 -2.95901 -6.11524 -0.0104124 -2.99488 13.6573 13.9127 11.1193 13.8853 11.4138 14.0022 -0.0 0.0 -0.0 3.92739 7.58208 7.89577 10.3226 -2.88302 76.0361 0.36731 -10.3126 0.0331455 18.6347 0.275971 -2.35394 2.81518 -10.6613 14.6132 -0.0 0.0 -0.0 8.94581 20.521 -17.0158 5.33424 13.5797 -54.4116 0.872324 23.3701 -0.180415 64.1069 2.15288 7.47345 1.96319 -2.47504 -14.2092 0.0 0.0 0.0 21.3812 -49.6385 2.79396 -41.5287 -0.566877 6.21094 -17.8212 28.9919 2.85332 11.3211 -0.0 -0.0 -0.0 0.0 -0.0 -2.90845 20.3796 -17.3261 -36.7198 0.271381 -5.5336 23.9613 -12.0593 3.22316 28.1907 -0.0 -0.0 0.0 0.0 0.0 
2392.31 743.168 -955.019 18.8965 59.0323 -6.3706 -6.22334 -0.67172 -2.80651 -6.21909 -0.491848 -2.84352 -6.18433 0.426857 -2.85399 -6.19569 -0.0290395 -2.88556 13.0237 11.3829 9.21695 13.1899 9.40316 11.5443 -0.0 0.0 -0.0 6.09149 5.92461 11.8219 12.8343 -3.55816 70.6698 0.334088 -9.39733 0.0274592 19.2757 0.271754 -2.43571 2.96208 -11.4784 15.2628 -0.0 0.0 -0.0 7.77298 20.3637 -14.4412 4.36644 13.296 -56.4683 0.770459 20.8899 -0.142033 63.4713 2.09252 7.41866 1.82151 -2.77557 -13.3573 0.0 0.0 0.0 19.3974 -47.4134 3.86727 -41.5369 -0.567425 6.21207 -14.9153 29.7821 2.39558 15.4652 -0.0 -0.0 -0.0 0.0 -0.0 -1.89816 22.3737 -17.6279 -39.192 0.416166 -5.88485 19.6325 -13.4115 2.70108 30.3372 -0.0 -0.0 0.0 0.0 0.0 
2370.14 745.662 -960.598 20.5163 59.1649 -8.0704 -6.15528 -0.67098 -2.82642 -6.15097 -0.489844 -2.86334 -6.1161 0.431576 -2.87269 -6.12761 -0.0273303 -2.90478 11.5094 12.0605 9.69869 11.7206 10.4159 12.0063 -0.0 0.0 -0.0 6.44378 5.11727 12.4873 13.6756 -4.28056 69.4979 0.403905 -11.3147 0.0400117 20.38 0.262346 -2.57644 2.97414 -10.9108 15.608 -0.0 0.0 -0.0 7.55064 20.3172 -13.9572 1.68772 13.6518 -57.265 0.616309 16.9776 -0.0919859 62.4985 2.00134 7.33352 1.9385 -5.4374 -15.1704 0.0 0.0 0.0 17.0658 -46.2685 4.07717 -40.7432 -0.514723 6.10199 -15.4167 31.0351 2.49877 16.1854 -0.0 -0.0 -0.0 0.0 -0.0 1.2635 21.7471 -18.2378 -43.8254 0.727901 -6.52532 18.4217 -15.5097 2.55959 30.946 -0.0 -0.0 0.0 0.0 0.0 
